<?xml version="1.0" standalone="no"?>
<!DOCTYPE svg PUBLIC "-//W3C//DTD SVG 20010904//EN"
 "http://www.w3.org/TR/2001/REC-SVG-20010904/DTD/svg10.dtd">
<svg version="1.0" xmlns="http://www.w3.org/2000/svg"
 width="390.000000pt" height="390.000000pt" viewBox="0 0 390.000000 390.000000"
 preserveAspectRatio="xMidYMid meet">
<metadata>
Created by potrace 1.14, written by Peter Selinger 2001-2017
</metadata>
<g transform="translate(0.000000,390.000000) scale(0.100000,-0.100000)"
fill="#000000" stroke="none">
<path d="M1885 3448 c-67 -7 -224 -47 -330 -83 -38 -13 -90 -29 -115 -35 -91
-23 -247 -113 -304 -175 -31 -34 -105 -141 -136 -197 -49 -87 -210 -419 -210
-433 0 -3 -9 -26 -20 -51 -22 -46 -65 -162 -106 -279 -39 -114 -53 -208 -52
-365 1 -442 155 -854 419 -1120 44 -44 101 -94 127 -112 26 -17 49 -35 52 -39
3 -4 48 -29 100 -57 96 -51 244 -106 316 -118 21 -3 41 -7 44 -9 6 -4 61 -12
152 -23 74 -9 217 -8 294 2 103 14 121 18 204 38 405 101 705 378 871 807 34
87 84 280 94 360 4 30 9 63 11 75 3 12 7 91 8 177 2 122 -1 176 -16 250 -11
52 -23 98 -29 104 -5 5 -9 16 -9 25 0 20 -66 197 -125 335 -138 326 -279 573
-374 657 -60 53 -170 113 -251 138 -36 11 -110 34 -165 51 -241 74 -335 90
-450 77z"/>
</g>
</svg>
